<svg width="72" height="72" viewBox="0 0 72 72" fill="none" xmlns="http://www.w3.org/2000/svg">
<rect x="0.5" y="0.5" width="71" height="71" rx="35.5" fill="url(#paint0_linear_1234_147159)" stroke="url(#paint1_linear_1234_147159)"/>
<path d="M13.0977 38.0311C14.133 38.0311 14.9974 37.3331 15.2699 36.3855H21.677C21.7831 36.4554 21.9032 36.5062 22.0397 36.5062C22.1763 36.5062 22.2963 36.4554 22.4024 36.3855H44.6128V37.6551C44.6128 38.0273 44.9151 38.3296 45.2873 38.3296C45.6595 38.3296 45.9618 38.0273 45.9618 37.6551V36.3855H55.2519L54.597 37.9276L59.7314 35.7618L54.597 33.596L55.1756 34.9584H37.8392C37.8836 34.8688 37.9135 34.771 37.9135 34.6643V33.2175C37.9135 32.8453 37.6112 32.543 37.239 32.543C36.8668 32.543 36.5645 32.8453 36.5645 33.2175V34.6643C36.5645 34.771 36.5943 34.8682 36.6388 34.9584H30.0036V33.5465C30.0036 33.1743 29.7013 32.872 29.3291 32.872C28.9569 32.872 28.6546 33.1743 28.6546 33.5465V34.9584H22.7129V34.3848C22.7129 34.0127 22.4106 33.7103 22.0384 33.7103C21.6663 33.7103 21.3639 34.0127 21.3639 34.3848V34.9584H15.2133C14.8882 34.1028 14.0669 33.4919 13.0971 33.4919C11.8434 33.4919 10.8271 34.5081 10.8271 35.7618C10.8278 37.0149 11.844 38.0311 13.0977 38.0311Z" fill="#5263BA"/>
<path d="M57.693 34.6656C57.8232 34.7856 57.9871 34.8447 58.1503 34.8447C58.3186 34.8447 58.4825 34.7755 58.6121 34.6523L59.9579 35.2201C60.1745 35.3115 60.3155 35.5237 60.3155 35.7587C60.3155 35.9936 60.1745 36.2064 59.9579 36.2972L57.9395 37.1489C58.3548 37.6831 59.002 38.028 59.7305 38.028C60.9843 38.028 62.0005 37.0118 62.0005 35.758C62.0005 34.5043 60.9843 33.4881 59.7305 33.4881C59.3456 33.4881 58.9868 33.5891 58.6692 33.7586C58.6476 33.7313 58.6349 33.6989 58.6082 33.6742L58.0792 33.1851C57.8048 32.9317 57.3786 32.9495 57.1265 33.2226C56.8737 33.4963 56.8902 33.9231 57.164 34.1753L57.693 34.6656Z" fill="#5263BA"/>
<path d="M29.3298 30.6005C29.702 30.6005 30.0043 30.2982 30.0043 29.926V28.4792C30.0043 28.107 29.702 27.8047 29.3298 27.8047C28.9576 27.8047 28.6553 28.107 28.6553 28.4792V29.926C28.6553 30.2982 28.9576 30.6005 29.3298 30.6005Z" fill="#5263BA"/>
<path d="M20.3785 30.9994C20.6605 30.9994 20.9203 31.115 21.1102 31.324C21.2429 31.4713 21.4265 31.5462 21.6107 31.5462C21.772 31.5462 21.934 31.4885 22.0629 31.3716C22.3392 31.122 22.3601 30.6952 22.1105 30.4189C21.6685 29.9305 21.0378 29.6504 20.3792 29.6504H20.3201C19.9479 29.6504 19.6748 29.9527 19.6748 30.3249C19.6748 30.6971 20.0063 30.9994 20.3785 30.9994Z" fill="#5263BA"/>
<path d="M16.1639 33.368C16.3367 33.368 16.5088 33.3019 16.6409 33.1705L17.6641 32.1473C17.9277 31.8837 17.9277 31.4569 17.6641 31.1933C17.4005 30.9304 16.9737 30.9304 16.7101 31.1933L15.6869 32.2165C15.4234 32.4801 15.4234 32.9069 15.6869 33.1705C15.819 33.3019 15.9912 33.368 16.1639 33.368Z" fill="#5263BA"/>
<path d="M26.8264 42.556C27.1986 42.556 27.5009 42.2537 27.5009 41.8815C27.5009 41.5094 27.1986 41.207 26.8264 41.207H25.3796C25.0074 41.207 24.7051 41.5094 24.7051 41.8815C24.7051 42.2537 25.0074 42.556 25.3796 42.556H26.8264Z" fill="#5263BA"/>
<path d="M22.0378 38.7715C21.6656 38.7715 21.3633 39.0738 21.3633 39.446V40.2202C21.3633 40.539 21.4268 40.849 21.5519 41.1405C21.6612 41.3965 21.9101 41.5495 22.1718 41.5495C22.2607 41.5495 22.3509 41.5318 22.4373 41.4949C22.7796 41.3482 22.9384 40.9519 22.7917 40.6095C22.739 40.487 22.7123 40.3561 22.7123 40.2208V39.446C22.7123 39.0738 22.4106 38.7715 22.0378 38.7715Z" fill="#5263BA"/>
<path d="M48.7302 30.931H50.177C50.5492 30.931 50.8515 30.6287 50.8515 30.2565C50.8515 29.8844 50.5492 29.582 50.177 29.582H48.7302C48.358 29.582 48.0557 29.8844 48.0557 30.2565C48.0557 30.6287 48.3573 30.931 48.7302 30.931Z" fill="#5263BA"/>
<path d="M45.2858 33.2646C45.658 33.2646 45.9603 32.9622 45.9603 32.5901V31.9181C45.9603 31.7618 45.9959 31.6126 46.0651 31.4748C46.2334 31.1426 46.0994 30.7367 45.7673 30.5691C45.4345 30.4001 45.0286 30.5348 44.8616 30.867C44.6958 31.1953 44.6113 31.5491 44.6113 31.9181V32.5901C44.6113 32.9629 44.9136 33.2646 45.2858 33.2646Z" fill="#5263BA"/>
<path d="M36.5645 28.1511V29.5979C36.5645 29.9701 36.8668 30.2724 37.239 30.2724C37.6111 30.2724 37.9135 29.9701 37.9135 29.5979V28.1511C37.9135 27.7789 37.6111 27.4766 37.239 27.4766C36.8668 27.4766 36.5645 27.7782 36.5645 28.1511Z" fill="#5263BA"/>
<path d="M29.9489 25.7272C30.0976 25.7272 30.2468 25.6783 30.3719 25.5779C30.5485 25.4357 30.7625 25.3607 30.9899 25.3607H31.3113C31.6835 25.3607 31.9858 25.0584 31.9858 24.6862C31.9858 24.314 31.6835 24.0117 31.3113 24.0117H30.9899C30.4589 24.0117 29.9394 24.1953 29.5259 24.5274C29.2357 24.7612 29.19 25.1854 29.4237 25.4757C29.5571 25.6408 29.752 25.7272 29.9489 25.7272Z" fill="#5263BA"/>
<path d="M34.9294 25.3607H35.5791C35.7398 25.3607 35.8929 25.3982 36.0332 25.4712C36.133 25.5233 36.2397 25.5481 36.3451 25.5481C36.5883 25.5481 36.8227 25.416 36.9434 25.1861C37.1155 24.8558 36.9878 24.4487 36.6576 24.2759C36.3267 24.1038 35.9539 24.0117 35.5791 24.0117H34.9294C34.5572 24.0117 34.2549 24.314 34.2549 24.6862C34.2549 25.0584 34.5572 25.3607 34.9294 25.3607Z" fill="#5263BA"/>
<path d="M53.5736 30.9806C53.719 31.0289 53.8536 31.1121 53.9813 31.2379L54.4748 31.6939C54.6044 31.8139 54.7689 31.873 54.9321 31.873C55.1137 31.873 55.2948 31.7999 55.4275 31.6564C55.6803 31.3827 55.6638 30.9559 55.39 30.7037L54.9149 30.2655C54.6577 30.0095 54.3402 29.8139 53.9966 29.7002C53.6441 29.5833 53.2617 29.7758 53.1448 30.1289C53.0273 30.4827 53.2198 30.8638 53.5736 30.9806Z" fill="#5263BA"/>
<path d="M40.4905 47.9916C40.8627 47.9916 41.165 47.6893 41.165 47.3171C41.165 46.9449 40.8627 46.6426 40.4905 46.6426H39.0436C38.6715 46.6426 38.3691 46.9449 38.3691 47.3171C38.3691 47.6893 38.6715 47.9916 39.0436 47.9916H40.4905Z" fill="#5263BA"/>
<path d="M36.5645 44.7893C36.5645 45.1615 36.8668 45.4638 37.239 45.4638C37.6111 45.4638 37.9135 45.1615 37.9135 44.7893V43.3425C37.9135 42.9703 37.6111 42.668 37.239 42.668C36.8668 42.668 36.5645 42.9703 36.5645 43.3425V44.7893Z" fill="#5263BA"/>
<path d="M37.239 40.4013C37.6111 40.4013 37.9135 40.099 37.9135 39.7268V38.28C37.9135 37.9078 37.6111 37.6055 37.239 37.6055C36.8668 37.6055 36.5645 37.9078 36.5645 38.28V39.7268C36.5645 40.099 36.8668 40.4013 37.239 40.4013Z" fill="#5263BA"/>
<path d="M43.9086 46.5983C43.5517 46.7044 43.3485 47.0804 43.4552 47.4374C43.5422 47.7301 43.8108 47.9194 44.1011 47.9194C44.1652 47.9194 44.23 47.9105 44.2942 47.8915C44.956 47.6939 45.4933 47.2176 45.7683 46.5844C45.9169 46.2427 45.76 45.8451 45.419 45.6971C45.0754 45.5478 44.6791 45.7047 44.5317 46.0464C44.4142 46.3132 44.1875 46.5151 43.9086 46.5983Z" fill="#5263BA"/>
<path d="M45.2858 43.3915C45.658 43.3915 45.9603 43.0892 45.9603 42.717V41.2702C45.9603 40.898 45.658 40.5957 45.2858 40.5957C44.9136 40.5957 44.6113 40.898 44.6113 41.2702V42.717C44.6113 43.0892 44.9136 43.3915 45.2858 43.3915Z" fill="#5263BA"/>
<path d="M30.0043 40.0549V38.6081C30.0043 38.2359 29.702 37.9336 29.3298 37.9336C28.9576 37.9336 28.6553 38.2359 28.6553 38.6081V40.0549C28.6553 40.4271 28.9576 40.7294 29.3298 40.7294C29.702 40.7294 30.0043 40.4271 30.0043 40.0549Z" fill="#5263BA"/>
<defs>
<linearGradient id="paint0_linear_1234_147159" x1="3.14458" y1="1.83299" x2="40.2516" y2="89.9836" gradientUnits="userSpaceOnUse">
<stop stop-color="#21253A"/>
<stop offset="1" stop-color="#0C131A"/>
</linearGradient>
<linearGradient id="paint1_linear_1234_147159" x1="10.5" y1="-1.33179e-06" x2="51" y2="66" gradientUnits="userSpaceOnUse">
<stop stop-color="#21253A"/>
<stop offset="0.989583" stop-color="#47559D"/>
</linearGradient>
</defs>
</svg>
