<svg width="72" height="72" viewBox="0 0 72 72" fill="none" xmlns="http://www.w3.org/2000/svg">
<rect x="0.5" y="0.5" width="71" height="71" rx="35.5" fill="url(#paint0_linear_1332_147941)" stroke="url(#paint1_linear_1332_147941)"/>
<path fill-rule="evenodd" clip-rule="evenodd" d="M38 40.75C38 40.4739 38.2239 40.25 38.5 40.25H44C44.2761 40.25 44.5 40.4739 44.5 40.75V41.25C44.5 41.5261 44.2761 41.75 44 41.75H38.5C38.2239 41.75 38 41.5261 38 41.25V40.75Z" fill="#5263BA"/>
<path fill-rule="evenodd" clip-rule="evenodd" d="M38 32C38 31.7239 38.2239 31.5 38.5 31.5H44C44.2761 31.5 44.5 31.7239 44.5 32V32.5C44.5 32.7761 44.2761 33 44 33H38.5C38.2239 33 38 32.7761 38 32.5V32Z" fill="#5263BA"/>
<path fill-rule="evenodd" clip-rule="evenodd" d="M40.25 30.5C40.25 30.2239 40.4739 30 40.75 30H41.75C42.0261 30 42.25 30.2239 42.25 30.5C42.25 30.7761 42.0261 31 41.75 31H40.75C40.4739 31 40.25 30.7761 40.25 30.5Z" fill="#5263BA"/>
<path fill-rule="evenodd" clip-rule="evenodd" d="M40.25 34C40.25 33.7239 40.4739 33.5 40.75 33.5H41.75C42.0261 33.5 42.25 33.7239 42.25 34C42.25 34.2761 42.0261 34.5 41.75 34.5H40.75C40.4739 34.5 40.25 34.2761 40.25 34Z" fill="#5263BA"/>
<path fill-rule="evenodd" clip-rule="evenodd" d="M29.0874 31.1466C29.2827 31.3419 29.2827 31.6585 29.0874 31.8538L28.1465 32.7943C27.9512 32.9895 27.9512 33.3061 28.1464 33.5014L28.4999 33.855C28.6951 34.0503 29.0117 34.0504 29.207 33.8552L30.1485 32.914C30.3438 32.7188 30.6602 32.7188 30.8555 32.914L31.797 33.8552C31.9923 34.0504 32.3089 34.0503 32.5041 33.855L32.8576 33.5014C33.0528 33.3061 33.0528 32.9895 32.8575 32.7943L31.9166 31.8538C31.7213 31.6585 31.7213 31.3419 31.9166 31.1466L32.8563 30.2072C33.0516 30.012 33.0517 29.6954 32.8565 29.5001L32.503 29.1465C32.3078 28.9512 31.9912 28.9512 31.7959 29.1464L30.8555 30.0864C30.6602 30.2816 30.3438 30.2816 30.1485 30.0864L29.2081 29.1464C29.0128 28.9512 28.6962 28.9512 28.501 29.1465L28.1475 29.5001C27.9523 29.6954 27.9524 30.012 28.1477 30.2072L29.0874 31.1466Z" fill="#5263BA"/>
<path fill-rule="evenodd" clip-rule="evenodd" d="M29.3035 41.7493C29.5799 41.7491 29.804 41.9732 29.8039 42.2496L29.803 43.5949C29.8028 43.8711 30.0265 44.0951 30.3026 44.0953L30.8026 44.0956C31.0788 44.0958 31.3028 43.8721 31.303 43.5959L31.3039 42.2473C31.304 41.9714 31.5276 41.7478 31.8035 41.7476L33.1521 41.7468C33.4283 41.7466 33.652 41.5226 33.6518 41.2464L33.6515 40.7464C33.6513 40.4703 33.4273 40.2466 33.1511 40.2468L31.8058 40.2476C31.5294 40.2478 31.3053 40.0237 31.3055 39.7473L31.3064 38.4014C31.3066 38.1252 31.0829 37.9012 30.8067 37.901L30.3067 37.9007C30.0306 37.9005 29.8066 38.1242 29.8064 38.4004L29.8055 39.7496C29.8053 40.0255 29.5817 40.2491 29.3058 40.2493L27.9566 40.2502C27.6805 40.2503 27.4568 40.4744 27.4569 40.7505L27.4573 41.2505C27.4575 41.5266 27.6815 41.7503 27.9576 41.7502L29.3035 41.7493Z" fill="#5263BA"/>
<rect x="21.5" y="21.5" width="29" height="29" rx="4.5" stroke="#5263BA"/>
<defs>
<linearGradient id="paint0_linear_1332_147941" x1="3.14458" y1="1.83299" x2="40.2516" y2="89.9836" gradientUnits="userSpaceOnUse">
<stop stop-color="#21253A"/>
<stop offset="1" stop-color="#0C131A"/>
</linearGradient>
<linearGradient id="paint1_linear_1332_147941" x1="10.5" y1="-1.33179e-06" x2="51" y2="66" gradientUnits="userSpaceOnUse">
<stop stop-color="#21253A"/>
<stop offset="0.989583" stop-color="#47559D"/>
</linearGradient>
</defs>
</svg>
